<svg width="300" height="300" viewBox="0 0 300 300" fill="none" xmlns="http://www.w3.org/2000/svg">
<path d="M175 60V105H225L175 60ZM162.5 105V60H93.75C83.3945 60 75 67.5551 75 76.875V223.125C75 232.441 83.3945 240 93.75 240H206.25C216.605 240 225 232.445 225 223.125V116.25H175.352C168.086 116.25 162.5 111.223 162.5 105ZM100 85.3125C100 83.7762 101.418 82.5 103.125 82.5H134.375C136.094 82.5 137.5 83.7762 137.5 85.3125V90.9375C137.5 92.4773 136.094 93.75 134.375 93.75H103.125C101.418 93.75 100 92.4773 100 90.9375V85.3125ZM100 107.812C100 106.266 101.418 105 103.125 105H134.375C136.094 105 137.5 106.266 137.5 107.812V113.438C137.5 114.984 136.094 116.25 134.375 116.25H103.125C101.418 116.25 100 114.984 100 113.438V107.812ZM193.75 195C197.217 195 200 197.505 200 200.625C200 203.745 197.227 206.25 193.75 206.25H175.293C168.895 206.25 163.086 203.042 160.203 197.855C159.08 195.789 157.078 195.57 156.25 195.57C155.422 195.57 153.418 195.789 152.344 197.723L149.316 203.13C148.281 205.055 145.742 206.25 143.75 206.25H143.32C140.781 206.074 138.633 204.58 137.852 202.383L131.25 184.664L127.109 195.879C124.805 202.066 118.359 206.25 111.086 206.25H106.25C102.785 206.25 100 203.754 100 200.625C100 197.496 102.785 195 106.25 195H111.086C112.99 195 114.65 193.901 115.234 192.319L122.363 173.113C123.633 169.652 127.188 167.332 131.25 167.332C135.312 167.332 138.867 169.661 140.137 173.133L145.559 187.768C153.273 182.055 166.703 184.341 171.34 192.732C172.121 194.139 173.684 195.018 175.293 195.018H193.75V195Z" fill="#C5C5C5" fill-opacity="0.75"/>
</svg>
