<svg width="500" height="500" viewBox="0 0 500 500" fill="none" xmlns="http://www.w3.org/2000/svg">
<path d="M324.96 175H174.695C161.211 175 150 184.593 150 196.429V303.571C150 315.407 161.211 325 174.692 325H324.956C338.789 325 350 315.407 350 303.571V196.429C350.004 184.593 339.125 175 324.96 175ZM193.478 196.429C203.852 196.429 212.261 203.624 212.261 212.5C212.261 221.376 204.2 228.571 193.478 228.571C182.756 228.571 174.695 221.376 174.695 212.5C174.695 203.624 183.453 196.429 193.478 196.429ZM324.568 300.759C323.473 302.5 321.359 303.571 319.051 303.571H182.095C179.739 303.571 177.583 302.44 176.515 300.642C175.447 298.845 175.648 296.688 177.037 295.057L204.429 262.914C205.609 261.518 207.487 260.714 209.483 260.714C211.479 260.714 213.363 261.532 214.543 262.915L227.245 277.818L263.754 231.245C264.932 229.475 266.889 228.571 268.963 228.571C271.037 228.571 273.013 229.466 274.171 230.957L324.259 295.243C325.546 296.875 325.664 298.984 324.568 300.759Z" fill="#C5C5C5" fill-opacity="0.75"/>
</svg>
