<svg width="300" height="300" viewBox="0 0 300 300" fill="none" xmlns="http://www.w3.org/2000/svg">
<path d="M109.414 73.4156C113.242 76.5339 113.555 81.8671 110.078 85.3335L81.9687 113.473C80.2461 115.16 77.8164 116.18 75.2461 115.934C72.6758 116.32 70.1914 115.406 68.3711 113.473L52.7457 99.4101C49.0848 96.4218 49.0848 91.0781 52.7457 87.7839C56.4063 84.4898 62.3438 84.4898 66.0039 87.7839L74.6406 95.5429L96.1719 74.0413C99.6094 70.5785 105.547 70.2972 109.414 73.4156ZM109.414 129.68C113.242 132.773 113.555 138.117 110.078 141.598L81.9687 169.723C80.2461 171.41 77.8164 172.43 75.2461 172.184C72.6758 172.57 70.1914 171.656 68.3711 169.723L52.7457 155.66C49.0848 152.672 49.0848 147.328 52.7457 144.023C56.4063 140.754 62.3438 140.754 66.0039 144.023L74.6406 151.793L96.1719 130.277C99.6094 126.832 105.547 126.551 109.414 129.68ZM137.5 93.7499C137.5 87.5378 143.086 82.4999 150 82.4999H237.5C244.414 82.4999 250 87.5378 250 93.7499C250 99.9726 244.414 105 237.5 105H150C143.086 105 137.5 99.9726 137.5 93.7499ZM137.5 150C137.5 143.777 143.086 138.75 150 138.75H237.5C244.414 138.75 250 143.777 250 150C250 156.223 244.414 161.25 237.5 161.25H150C143.086 161.25 137.5 156.223 137.5 150ZM112.5 206.25C112.5 200.027 118.086 195 125 195H237.5C244.414 195 250 200.027 250 206.25C250 212.473 244.414 217.5 237.5 217.5H125C118.086 217.5 112.5 212.473 112.5 206.25ZM50 206.25C50 196.934 58.3945 189.375 68.75 189.375C79.1055 189.375 87.5 196.934 87.5 206.25C87.5 215.566 79.1055 223.125 68.75 223.125C58.3945 223.125 50 215.566 50 206.25Z" fill="#C5C5C5" fill-opacity="0.75"/>
</svg>
